<mxfile host="app.diagrams.net" agent="Mozilla/5.0 (Windows NT 10.0; Win64; x64) AppleWebKit/537.36 (KHTML, like Gecko) Chrome/141.0.0.0 Safari/537.36" version="28.2.7">
  <diagram name="Diagrama de Caso de Uso" id="NHpy0HZfZ8OJ4K8esoG-">
    <mxGraphModel grid="1" page="1" gridSize="10" guides="1" tooltips="1" connect="1" arrows="1" fold="1" pageScale="1" pageWidth="827" pageHeight="1169" math="0" shadow="0">
      <root>
        <mxCell id="0" />
        <mxCell id="1" parent="0" />
        <mxCell id="h9Paz5Mqgd37tNGx148v-1" value="" style="shape=rectangle;rounded=0;whiteSpace=wrap;strokeColor=#888888;fillColor=#F7F7F7;" vertex="1" parent="1">
          <mxGeometry x="220" y="40" width="560" height="360" as="geometry" />
        </mxCell>
        <mxCell id="h9Paz5Mqgd37tNGx148v-2" value="Cadastrar Competição" style="ellipse;whiteSpace=wrap;html=1;" vertex="1" parent="h9Paz5Mqgd37tNGx148v-1">
          <mxGeometry x="40" y="60" width="200" height="50" as="geometry" />
        </mxCell>
        <mxCell id="h9Paz5Mqgd37tNGx148v-3" value="Alocar Local" style="ellipse;whiteSpace=wrap;html=1;" vertex="1" parent="h9Paz5Mqgd37tNGx148v-1">
          <mxGeometry x="350" y="50" width="200" height="50" as="geometry" />
        </mxCell>
        <mxCell id="h9Paz5Mqgd37tNGx148v-4" value="Inscrever Atleta" style="ellipse;whiteSpace=wrap;html=1;" vertex="1" parent="h9Paz5Mqgd37tNGx148v-1">
          <mxGeometry x="60" y="170" width="200" height="50" as="geometry" />
        </mxCell>
        <mxCell id="h9Paz5Mqgd37tNGx148v-5" value="Registrar Resultados" style="ellipse;whiteSpace=wrap;html=1;" vertex="1" parent="h9Paz5Mqgd37tNGx148v-1">
          <mxGeometry x="70" y="280" width="200" height="50" as="geometry" />
        </mxCell>
        <mxCell id="h9Paz5Mqgd37tNGx148v-6" value="Gerar Relatório de Medalhas" style="ellipse;whiteSpace=wrap;html=1;" vertex="1" parent="h9Paz5Mqgd37tNGx148v-1">
          <mxGeometry x="280" y="210" width="200" height="50" as="geometry" />
        </mxCell>
        <mxCell id="h9Paz5Mqgd37tNGx148v-7" value="&amp;laquo;include&amp;raquo;" style="endArrow=open;dashed=1;html=1;strokeColor=#666666;" edge="1" parent="h9Paz5Mqgd37tNGx148v-1" source="h9Paz5Mqgd37tNGx148v-2" target="h9Paz5Mqgd37tNGx148v-3">
          <mxGeometry relative="1" as="geometry" />
        </mxCell>
        <mxCell id="h9Paz5Mqgd37tNGx148v-9" value="Administrador" style="shape=umlActor;verticalLabelPosition=bottom;verticalAlign=top;html=1;" vertex="1" parent="1">
          <mxGeometry x="40" y="60" width="70" height="110" as="geometry" />
        </mxCell>
        <mxCell id="h9Paz5Mqgd37tNGx148v-10" value="Atleta" style="shape=umlActor;verticalLabelPosition=bottom;verticalAlign=top;html=1;" vertex="1" parent="1">
          <mxGeometry x="40" y="190" width="70" height="110" as="geometry" />
        </mxCell>
        <mxCell id="h9Paz5Mqgd37tNGx148v-11" value="Juiz ou Organizador" style="shape=umlActor;verticalLabelPosition=bottom;verticalAlign=top;html=1;" vertex="1" parent="1">
          <mxGeometry x="20" y="330" width="120" height="110" as="geometry" />
        </mxCell>
        <mxCell id="h9Paz5Mqgd37tNGx148v-12" value="Comitê Olímpico" style="shape=umlActor;verticalLabelPosition=bottom;verticalAlign=top;html=1;" vertex="1" parent="1">
          <mxGeometry x="820" y="220" width="100" height="110" as="geometry" />
        </mxCell>
        <mxCell id="h9Paz5Mqgd37tNGx148v-13" style="endArrow=block;html=1;strokeColor=#666666;" edge="1" parent="1" source="h9Paz5Mqgd37tNGx148v-9" target="h9Paz5Mqgd37tNGx148v-2">
          <mxGeometry relative="1" as="geometry" />
        </mxCell>
        <mxCell id="h9Paz5Mqgd37tNGx148v-14" style="endArrow=block;html=1;strokeColor=#666666;" edge="1" parent="1" source="h9Paz5Mqgd37tNGx148v-10" target="h9Paz5Mqgd37tNGx148v-4">
          <mxGeometry relative="1" as="geometry" />
        </mxCell>
        <mxCell id="h9Paz5Mqgd37tNGx148v-15" style="endArrow=block;html=1;strokeColor=#666666;" edge="1" parent="1" source="h9Paz5Mqgd37tNGx148v-11" target="h9Paz5Mqgd37tNGx148v-5">
          <mxGeometry relative="1" as="geometry" />
        </mxCell>
        <mxCell id="h9Paz5Mqgd37tNGx148v-16" style="endArrow=block;html=1;strokeColor=#666666;" edge="1" parent="1" source="h9Paz5Mqgd37tNGx148v-12" target="h9Paz5Mqgd37tNGx148v-6">
          <mxGeometry relative="1" as="geometry" />
        </mxCell>
        <mxCell id="h9Paz5Mqgd37tNGx148v-8" value="Pré-condição:&#xa;- Resultados registrados." style="shape=note;whiteSpace=wrap;html=1;size=14;" vertex="1" parent="1">
          <mxGeometry x="700" y="430" width="150" height="80" as="geometry" />
        </mxCell>
        <mxCell id="TMdtJrhgadJ7ampUln0h-2" value="" style="endArrow=none;html=1;rounded=0;exitX=0.5;exitY=0;exitDx=0;exitDy=0;exitPerimeter=0;" edge="1" parent="1" source="h9Paz5Mqgd37tNGx148v-8" target="h9Paz5Mqgd37tNGx148v-6">
          <mxGeometry width="50" height="50" relative="1" as="geometry">
            <mxPoint x="450" y="320" as="sourcePoint" />
            <mxPoint x="500" y="270" as="targetPoint" />
            <Array as="points">
              <mxPoint x="780" y="430" />
            </Array>
          </mxGeometry>
        </mxCell>
      </root>
    </mxGraphModel>
  </diagram>
</mxfile>
